<svg id="Layer_1" data-name="Layer 1" xmlns="http://www.w3.org/2000/svg" viewBox="0 0 569 786"><defs><style>.cls-1{fill:#fff;}</style></defs><polygon class="cls-1" points="175 40 216 0 308 31 337 77 293 89 219 63 175 40"/><polygon class="cls-1" points="232 168 256 152 287.68 147 328 131 345 149.5 345 184 345 266 279 275 232 243 220 203 232 168"/><polygon class="cls-1" points="383 198 429 155 517 185 552 243 488 243 423 229 383 198"/><polygon class="cls-1" points="308 350 297 384 297 424 318 439 361 425 396 439 408 404 420 382 397 330 345 330 308 350"/><path class="cls-1" d="M486.5,490l44.5-5,7,16s1-19,23,24l22,43v32l-80-7-31-10V547Z" transform="translate(-19 -6)"/><polygon class="cls-1" points="11 729 0 764 24 786 133 771 145 747 114 711 61 711 11 729"/><polygon class="cls-1" points="150 718 175 697 232 707.5 267 724 256 761 233 781 208.5 781 150 773 150 718"/><path class="cls-1" d="M346,725s124-10,126-8l2,2,47,15h62l5,41-87,6H421l-43.5-10Z" transform="translate(-19 -6)"/></svg>